<svg width="14" height="14" viewBox="0 0 14 14" fill="none" xmlns="http://www.w3.org/2000/svg">
    <path
        d="M9.11259 4.74706L7.57362 0.448541C7.47413 0.149501 7.28136 0 6.99533 0C6.71552 0 6.52586 0.146397 6.42637 0.439209L4.86876 4.74704C4.80036 4.90278 4.68222 4.98066 4.51433 4.98066H0.662228C0.463241 4.98066 0.303128 5.03985 0.181879 5.1582C0.0606386 5.27658 0 5.41675 0 5.57873C0 5.77185 0.0932679 5.94004 0.279813 6.08333L3.479 8.46621C3.55984 8.53475 3.60027 8.62195 3.60027 8.72786C3.60027 8.77146 3.59716 8.80261 3.59093 8.8213L2.40641 13.1946C2.38775 13.2569 2.37843 13.3223 2.37843 13.3908C2.37843 13.5715 2.44061 13.721 2.56498 13.8394C2.68933 13.9577 2.83857 14.0107 3.01268 13.9982C3.16192 13.9858 3.28316 13.9359 3.37643 13.8487L6.78082 11.307C6.84922 11.2509 6.92384 11.2229 7.00467 11.2229C7.09794 11.2229 7.17566 11.2509 7.23785 11.307L10.5863 13.83C10.6795 13.9172 10.8008 13.9671 10.95 13.9795H10.9967C11.1583 13.9795 11.2982 13.9219 11.4164 13.8067C11.5345 13.6914 11.5936 13.5497 11.5936 13.3815C11.5936 13.3192 11.5843 13.2538 11.5656 13.1852L10.3811 8.82129C10.3749 8.80261 10.3717 8.7777 10.3717 8.74654C10.3717 8.62195 10.4184 8.52851 10.5117 8.46621L13.7202 6.09268C13.9067 5.94316 14 5.77186 14 5.57873C14 5.41675 13.9394 5.27658 13.8181 5.15822C13.6969 5.03986 13.5367 4.98067 13.3378 4.98067H9.47635C9.30225 4.98067 9.181 4.9028 9.11259 4.74706V4.74706Z"
        fill="#909090" />
</svg>